<svg xmlns="http://www.w3.org/2000/svg" version="1.1" xmlns:xlink="http://www.w3.org/1999/xlink" xmlns:svgjs="http://svgjs.com/svgjs" width="260" height="260"><svg version="1.1" id="SvgjsSvg1000" xmlns="http://www.w3.org/2000/svg" xmlns:xlink="http://www.w3.org/1999/xlink" x="0px" y="0px" viewBox="0 0 260 260" style="enable-background:new 0 0 260 260;" xml:space="preserve">
<style type="text/css">
	.st0{fill:#EFC566;}
</style>
<g>
	<path class="st0" d="M69,104.4c1.9,1.3,3.4,3,4.5,5c4.9,8.9-0.5,21.2-12,27.6c-11.6,6.4-24.9,4.4-29.8-4.5
		c-1.7-3.1-2.2-6.6-1.6-10.1l-20.5-5.7l50.4,70.8c13.6-2.4,28.7-4.2,44.7-5L78.5,84.2L69,104.4z"></path>
	<path class="st0" d="M229.9,122.4c0.6,3.5,0.1,7-1.6,10.1c-4.9,8.9-18.2,10.9-29.8,4.5c-11.5-6.4-16.9-18.7-12-27.6
		c1.1-2,2.7-3.7,4.5-5l-9.6-20.2l-26.2,98.3c16,0.9,31.1,2.6,44.7,5l50.4-70.8L229.9,122.4z"></path>
	<path class="st0" d="M157.4,96c1.1,2.2,1.7,4.6,1.7,7.1c0,11.9-13,21.5-29.1,21.5s-29.1-9.6-29.1-21.5c0-2.5,0.6-4.9,1.7-7.1
		L84.3,84.6l26.1,97.6c6.4-0.3,13-0.4,19.7-0.4c6.7,0,13.2,0.1,19.7,0.4l26-97.6L157.4,96z"></path>
	<path class="st0" d="M130,109.5c6.4,0,11.7-8.3,11.7-18.5c0-10.2-5.2-18.5-11.7-18.5c-6.4,0-11.7,8.3-11.7,18.5
		C118.3,101.2,123.6,109.5,130,109.5z"></path>
	<path class="st0" d="M55.6,126.8c4.8-2.3,5.7-10.4,2-17.9C53.8,101.2,47,97,42.2,99.3c-4.8,2.3-5.7,10.4-2,17.9
		C43.9,124.9,50.8,129.1,55.6,126.8z"></path>
	<path class="st0" d="M204,126.8c4.8,2.3,11.7-1.9,15.3-9.5c3.7-7.6,2.8-15.6-2-17.9c-4.8-2.3-11.7,1.9-15.3,9.5
		C198.3,116.4,199.2,124.4,204,126.8z"></path>
</g>
</svg><style>@media (prefers-color-scheme: light) { :root { filter: none; } }
</style></svg>