<?xml version="1.0" standalone="no"?>
<!DOCTYPE svg PUBLIC "-//W3C//DTD SVG 20010904//EN"
 "http://www.w3.org/TR/2001/REC-SVG-20010904/DTD/svg10.dtd">
<svg version="1.0" xmlns="http://www.w3.org/2000/svg"
 width="260.000000pt" height="260.000000pt" viewBox="0 0 260.000000 260.000000"
 preserveAspectRatio="xMidYMid meet">
<metadata>
Created by potrace 1.14, written by Peter Selinger 2001-2017
</metadata>
<g transform="translate(0.000000,260.000000) scale(0.100000,-0.100000)"
fill="#000000" stroke="none">
<path d="M0 1300 l0 -1300 1300 0 1300 0 0 1300 0 1300 -1300 0 -1300 0 0
-1300z m1362 533 c36 -38 49 -77 50 -149 0 -83 -29 -148 -76 -171 -33 -15 -39
-15 -70 -1 -90 43 -104 240 -24 325 31 33 86 31 120 -4z m-438 -569 c69 -259
126 -473 126 -476 0 -3 -45 -8 -99 -11 -54 -4 -152 -14 -216 -23 -99 -14 -119
-14 -130 -3 -16 16 -484 673 -482 676 1 0 45 -11 98 -25 l97 -27 5 -48 c7 -82
72 -131 172 -130 198 2 337 209 225 338 -16 19 -15 24 27 114 24 51 46 92 48
89 2 -2 60 -215 129 -474z m21 424 c78 -48 84 -54 77 -78 -12 -45 -4 -92 25
-139 23 -36 43 -54 97 -81 63 -32 76 -35 156 -35 80 0 93 3 156 35 84 43 126
96 128 162 0 23 -2 52 -6 63 -7 17 5 28 78 73 48 29 87 52 88 50 2 -2 -54
-216 -123 -476 l-126 -472 -194 2 -195 3 -126 473 c-70 259 -125 472 -124 472
2 0 42 -23 89 -52z m910 -40 c42 -90 43 -94 25 -113 -50 -57 -54 -125 -10
-202 47 -83 138 -135 235 -136 100 -1 175 57 175 133 0 21 3 41 8 43 23 15
191 54 185 44 -4 -7 -110 -156 -236 -332 -126 -176 -232 -326 -237 -334 -6
-12 -26 -12 -132 3 -68 9 -168 19 -222 23 -83 5 -97 9 -93 22 2 9 60 224 127
479 68 254 125 462 128 462 2 0 23 -42 47 -92z m-1325 -66 c14 -10 38 -43 53
-73 23 -43 28 -64 24 -101 -5 -61 -20 -78 -67 -78 -104 0 -186 185 -114 256
28 29 59 27 104 -4z m1640 10 c36 -29 39 -99 5 -168 -61 -125 -185 -129 -185
-6 0 73 34 136 95 173 38 24 57 24 85 1z"/>
</g>
</svg>
